<svg width="122" height="123" viewBox="0 0 122 123" fill="none" xmlns="http://www.w3.org/2000/svg">
<g filter="url(#filter0_ddd_367_708)">
<circle cx="61" cy="60" r="60" fill="url(#paint0_linear_367_708)"/>
<path d="M25.2263 76.4926C25.2263 74.6644 25.6968 72.984 26.6378 71.4515C27.5788 69.919 28.829 68.7495 30.3884 67.9429C33.7223 66.276 37.1099 65.0258 40.5513 64.1923C43.9927 63.3588 47.4879 62.9421 51.0368 62.9421C54.5858 62.9421 58.0809 63.3588 61.5223 64.1923C64.9637 65.0258 68.3514 66.276 71.6852 67.9429C73.2446 68.7495 74.4948 69.919 75.4358 71.4515C76.3768 72.984 76.8473 74.6644 76.8473 76.4926V79.0737C76.8473 80.8481 76.2155 82.3672 74.9519 83.6308C73.6882 84.8945 72.1692 85.5263 70.3947 85.5263H31.6789C29.9045 85.5263 28.3854 84.8945 27.1218 83.6308C25.8581 82.3672 25.2263 80.8481 25.2263 79.0737V76.4926ZM89.7526 85.5263H81.5255C82.117 84.5584 82.5606 83.5233 82.8563 82.421C83.1521 81.3186 83.3 80.2029 83.3 79.0737V75.8473C83.3 73.4814 82.6413 71.2095 81.3238 69.0318C80.0064 66.854 78.1379 64.9854 75.7181 63.426C78.4605 63.7487 81.0415 64.2998 83.4613 65.0795C85.881 65.8592 88.1394 66.8137 90.2365 67.9429C92.1723 69.0183 93.651 70.2147 94.6727 71.5322C95.6944 72.8496 96.2052 74.288 96.2052 75.8473V79.0737C96.2052 80.8481 95.5734 82.3672 94.3098 83.6308C93.0461 84.8945 91.5271 85.5263 89.7526 85.5263ZM51.0368 59.7158C47.4879 59.7158 44.4498 58.4521 41.9225 55.9249C39.3952 53.3976 38.1316 50.3595 38.1316 46.8105C38.1316 43.2616 39.3952 40.2235 41.9225 37.6962C44.4498 35.1689 47.4879 33.9053 51.0368 33.9053C54.5858 33.9053 57.6239 35.1689 60.1512 37.6962C62.6784 40.2235 63.9421 43.2616 63.9421 46.8105C63.9421 50.3595 62.6784 53.3976 60.1512 55.9249C57.6239 58.4521 54.5858 59.7158 51.0368 59.7158ZM83.3 46.8105C83.3 50.3595 82.0363 53.3976 79.509 55.9249C76.9818 58.4521 73.9436 59.7158 70.3947 59.7158C69.8032 59.7158 69.0504 59.6486 68.1363 59.5141C67.2222 59.3797 66.4694 59.2318 65.8779 59.0705C67.3297 57.3498 68.4455 55.4409 69.2252 53.3438C70.0049 51.2467 70.3947 49.0689 70.3947 46.8105C70.3947 44.5521 70.0049 42.3743 69.2252 40.2772C68.4455 38.1801 67.3297 36.2712 65.8779 34.5505C66.6307 34.2817 67.3835 34.1069 68.1363 34.0263C68.8891 33.9456 69.6419 33.9053 70.3947 33.9053C73.9436 33.9053 76.9818 35.1689 79.509 37.6962C82.0363 40.2235 83.3 43.2616 83.3 46.8105ZM31.6789 79.0737H70.3947V76.4926C70.3947 75.9011 70.2468 75.3634 69.9511 74.8795C69.6553 74.3955 69.2655 74.0191 68.7815 73.7502C65.8779 72.2984 62.9473 71.2095 59.9898 70.4836C57.0324 69.7577 54.048 69.3947 51.0368 69.3947C48.0256 69.3947 45.0413 69.7577 42.0838 70.4836C39.1264 71.2095 36.1958 72.2984 33.2921 73.7502C32.8082 74.0191 32.4183 74.3955 32.1226 74.8795C31.8268 75.3634 31.6789 75.9011 31.6789 76.4926V79.0737ZM51.0368 53.2632C52.8113 53.2632 54.3304 52.6313 55.594 51.3677C56.8576 50.1041 57.4895 48.585 57.4895 46.8105C57.4895 45.0361 56.8576 43.517 55.594 42.2534C54.3304 40.9897 52.8113 40.3579 51.0368 40.3579C49.2624 40.3579 47.7433 40.9897 46.4797 42.2534C45.216 43.517 44.5842 45.0361 44.5842 46.8105C44.5842 48.585 45.216 50.1041 46.4797 51.3677C47.7433 52.6313 49.2624 53.2632 51.0368 53.2632Z" fill="white"/>
</g>
<defs>
<filter id="filter0_ddd_367_708" x="0" y="0" width="122" height="123" filterUnits="userSpaceOnUse" color-interpolation-filters="sRGB">
<feFlood flood-opacity="0" result="BackgroundImageFix"/>
<feColorMatrix in="SourceAlpha" type="matrix" values="0 0 0 0 0 0 0 0 0 0 0 0 0 0 0 0 0 0 127 0" result="hardAlpha"/>
<feOffset dy="1"/>
<feGaussianBlur stdDeviation="0.5"/>
<feColorMatrix type="matrix" values="0 0 0 0 0 0 0 0 0 0 0 0 0 0 0 0 0 0 0.09 0"/>
<feBlend mode="normal" in2="BackgroundImageFix" result="effect1_dropShadow_367_708"/>
<feColorMatrix in="SourceAlpha" type="matrix" values="0 0 0 0 0 0 0 0 0 0 0 0 0 0 0 0 0 0 127 0" result="hardAlpha"/>
<feOffset dy="1"/>
<feGaussianBlur stdDeviation="0.5"/>
<feColorMatrix type="matrix" values="0 0 0 0 0 0 0 0 0 0 0 0 0 0 0 0 0 0 0.05 0"/>
<feBlend mode="normal" in2="effect1_dropShadow_367_708" result="effect2_dropShadow_367_708"/>
<feColorMatrix in="SourceAlpha" type="matrix" values="0 0 0 0 0 0 0 0 0 0 0 0 0 0 0 0 0 0 127 0" result="hardAlpha"/>
<feOffset dy="2"/>
<feGaussianBlur stdDeviation="0.5"/>
<feColorMatrix type="matrix" values="0 0 0 0 0 0 0 0 0 0 0 0 0 0 0 0 0 0 0.01 0"/>
<feBlend mode="normal" in2="effect2_dropShadow_367_708" result="effect3_dropShadow_367_708"/>
<feBlend mode="normal" in="SourceGraphic" in2="effect3_dropShadow_367_708" result="shape"/>
</filter>
<linearGradient id="paint0_linear_367_708" x1="-30" y1="-40" x2="166" y2="179" gradientUnits="userSpaceOnUse">
<stop stop-color="#A1DB46"/>
<stop offset="1" stop-color="#6E982D"/>
</linearGradient>
</defs>
</svg>
