<svg width="122" height="123" viewBox="0 0 122 123" fill="none" xmlns="http://www.w3.org/2000/svg">
<g filter="url(#filter0_ddd_367_733)">
<circle cx="61" cy="60" r="60" fill="url(#paint0_linear_367_733)"/>
<path d="M57.4894 66.1684H63.942C64.8562 66.1684 65.6224 65.8592 66.2408 65.2408C66.8592 64.6224 67.1684 63.8562 67.1684 62.942C67.1684 62.0279 66.8592 61.2617 66.2408 60.6433C65.6224 60.0249 64.8562 59.7157 63.942 59.7157H57.4894C56.5753 59.7157 55.8091 60.0249 55.1907 60.6433C54.5723 61.2617 54.2631 62.0279 54.2631 62.942C54.2631 63.8562 54.5723 64.6224 55.1907 65.2408C55.8091 65.8592 56.5753 66.1684 57.4894 66.1684ZM57.4894 56.4894H76.8473C77.7614 56.4894 78.5277 56.1802 79.146 55.5619C79.7644 54.9435 80.0736 54.1772 80.0736 53.2631C80.0736 52.349 79.7644 51.5827 79.146 50.9644C78.5277 50.346 77.7614 50.0368 76.8473 50.0368H57.4894C56.5753 50.0368 55.8091 50.346 55.1907 50.9644C54.5723 51.5827 54.2631 52.349 54.2631 53.2631C54.2631 54.1772 54.5723 54.9435 55.1907 55.5619C55.8091 56.1802 56.5753 56.4894 57.4894 56.4894ZM57.4894 46.8105H76.8473C77.7614 46.8105 78.5277 46.5013 79.146 45.8829C79.7644 45.2646 80.0736 44.4983 80.0736 43.5842C80.0736 42.6701 79.7644 41.9038 79.146 41.2854C78.5277 40.6671 77.7614 40.3579 76.8473 40.3579H57.4894C56.5753 40.3579 55.8091 40.6671 55.1907 41.2854C54.5723 41.9038 54.2631 42.6701 54.2631 43.5842C54.2631 44.4983 54.5723 45.2646 55.1907 45.8829C55.8091 46.5013 56.5753 46.8105 57.4894 46.8105ZM47.8105 79.0736C46.036 79.0736 44.517 78.4418 43.2533 77.1781C41.9897 75.9145 41.3579 74.3954 41.3579 72.621V33.9053C41.3579 32.1308 41.9897 30.6117 43.2533 29.3481C44.517 28.0845 46.036 27.4526 47.8105 27.4526H86.5262C88.3007 27.4526 89.8197 28.0845 91.0834 29.3481C92.347 30.6117 92.9788 32.1308 92.9788 33.9053V72.621C92.9788 74.3954 92.347 75.9145 91.0834 77.1781C89.8197 78.4418 88.3007 79.0736 86.5262 79.0736H47.8105ZM47.8105 72.621H86.5262V33.9053H47.8105V72.621ZM34.9053 91.9788C33.1308 91.9788 31.6117 91.347 30.3481 90.0834C29.0845 88.8197 28.4526 87.3007 28.4526 85.5262V43.5842C28.4526 42.6701 28.7618 41.9038 29.3802 41.2854C29.9986 40.6671 30.7648 40.3579 31.6789 40.3579C32.5931 40.3579 33.3593 40.6671 33.9777 41.2854C34.5961 41.9038 34.9053 42.6701 34.9053 43.5842V85.5262H76.8473C77.7614 85.5262 78.5277 85.8354 79.146 86.4538C79.7644 87.0722 80.0736 87.8384 80.0736 88.7525C80.0736 89.6666 79.7644 90.4329 79.146 91.0513C78.5277 91.6696 77.7614 91.9788 76.8473 91.9788H34.9053Z" fill="white"/>
</g>
<defs>
<filter id="filter0_ddd_367_733" x="0" y="0" width="122" height="123" filterUnits="userSpaceOnUse" color-interpolation-filters="sRGB">
<feFlood flood-opacity="0" result="BackgroundImageFix"/>
<feColorMatrix in="SourceAlpha" type="matrix" values="0 0 0 0 0 0 0 0 0 0 0 0 0 0 0 0 0 0 127 0" result="hardAlpha"/>
<feOffset dy="1"/>
<feGaussianBlur stdDeviation="0.5"/>
<feColorMatrix type="matrix" values="0 0 0 0 0 0 0 0 0 0 0 0 0 0 0 0 0 0 0.09 0"/>
<feBlend mode="normal" in2="BackgroundImageFix" result="effect1_dropShadow_367_733"/>
<feColorMatrix in="SourceAlpha" type="matrix" values="0 0 0 0 0 0 0 0 0 0 0 0 0 0 0 0 0 0 127 0" result="hardAlpha"/>
<feOffset dy="1"/>
<feGaussianBlur stdDeviation="0.5"/>
<feColorMatrix type="matrix" values="0 0 0 0 0 0 0 0 0 0 0 0 0 0 0 0 0 0 0.05 0"/>
<feBlend mode="normal" in2="effect1_dropShadow_367_733" result="effect2_dropShadow_367_733"/>
<feColorMatrix in="SourceAlpha" type="matrix" values="0 0 0 0 0 0 0 0 0 0 0 0 0 0 0 0 0 0 127 0" result="hardAlpha"/>
<feOffset dy="2"/>
<feGaussianBlur stdDeviation="0.5"/>
<feColorMatrix type="matrix" values="0 0 0 0 0 0 0 0 0 0 0 0 0 0 0 0 0 0 0.01 0"/>
<feBlend mode="normal" in2="effect2_dropShadow_367_733" result="effect3_dropShadow_367_733"/>
<feBlend mode="normal" in="SourceGraphic" in2="effect3_dropShadow_367_733" result="shape"/>
</filter>
<linearGradient id="paint0_linear_367_733" x1="-59" y1="-72" x2="200" y2="221" gradientUnits="userSpaceOnUse">
<stop stop-color="#256EDE"/>
<stop offset="1" stop-color="#143B78"/>
</linearGradient>
</defs>
</svg>
